<?xml version="1.0" encoding="utf-8"?>
<!-- Generator: Adobe Illustrator 25.1.0, SVG Export Plug-In . SVG Version: 6.00 Build 0)  -->
<svg version="1.1" id="Layer_1" xmlns="http://www.w3.org/2000/svg" xmlns:xlink="http://www.w3.org/1999/xlink" x="0px" y="0px"
	 viewBox="0 0 16 16" style="enable-background:new 0 0 16 16;" xml:space="preserve">
<style type="text/css">
	.st0{fill:#FFFFFF;}
</style>
<g>
	<circle class="st0" cx="8" cy="8" r="7.5"/>
	<path d="M8,1c3.9,0,7,3.1,7,7s-3.1,7-7,7s-7-3.1-7-7S4.1,1,8,1 M8,0C3.6,0,0,3.6,0,8s3.6,8,8,8s8-3.6,8-8S12.4,0,8,0L8,0z"/>
</g>
<g>
	<g>
		<path d="M8,4.2l4,2L8,8.3l-4-2L8,4.2 M8,3.4L2.3,6.2L8,9.1l5.7-2.9L8,3.4L8,3.4z"/>
	</g>
	<polygon points="8,10 3.1,7.6 2.3,8 8,10.9 13.7,8 12.9,7.6 	"/>
	<polygon points="8,11.8 3.1,9.4 2.3,9.8 8,12.6 13.7,9.8 12.9,9.4 	"/>
</g>
</svg>
